<?xml version="1.0" encoding="UTF-8" standalone="no"?><!DOCTYPE svg PUBLIC "-//W3C//DTD SVG 1.1//EN" "http://www.w3.org/Graphics/SVG/1.1/DTD/svg11.dtd"><!-- Generated by graphviz version 2.40.1 (20161225.0304)
 --><!-- Title: %0 Pages: 1 --><svg xmlns="http://www.w3.org/2000/svg" xmlns:xlink="http://www.w3.org/1999/xlink" width="417pt" height="130pt" viewBox="0.00 0.00 417.00 130.00">
<g id="graph0" class="graph" transform="scale(1 1) rotate(0) translate(4 126)">
<title>%0</title>
<polygon fill="#ffffff" stroke="transparent" points="-4,4 -4,-126 413,-126 413,4 -4,4"/>
<!-- 1 -->
<g id="node1" class="node">
<title>1</title>
<ellipse fill="#d3d3d3" stroke="#000000" cx="82.5" cy="-100.5" rx="21.5" ry="21.5"/>
<text text-anchor="middle" x="82.5" y="-96.3" font-family="Times,serif" font-size="14.00" fill="#000000">设置地图</text>
</g>
<!-- 3 -->
<g id="node3" class="node">
<title>3</title>
<ellipse fill="#d3d3d3" stroke="#000000" cx="326.5" cy="-21.5" rx="21.5" ry="21.5"/>
<text text-anchor="middle" x="326.5" y="-17.3" font-family="Times,serif" font-size="14.00" fill="#000000">DFS</text>
</g>
<!-- 1&#45;&gt;3 -->
<g id="edge1" class="edge">
<title>1-&gt;3</title>
<path fill="none" stroke="#000000" d="M99.4677,-86.882C103.8376,-83.9073 108.6745,-81.0419 113.5,-79 189.8387,-46.6965 220.413,-75.892 296.5,-43 298.077,-42.3183 299.6528,-41.5435 301.2103,-40.7026"/>
<polygon fill="#000000" stroke="#000000" points="303.1694,-43.6059 309.8119,-35.352 299.472,-37.6621 303.1694,-43.6059"/>
</g>
<!-- 4 -->
<g id="node4" class="node">
<title>4</title>
<ellipse fill="#d3d3d3" stroke="#000000" cx="82.5" cy="-21.5" rx="21.5" ry="21.5"/>
<text text-anchor="middle" x="82.5" y="-17.3" font-family="Times,serif" font-size="14.00" fill="#000000">BFS</text>
</g>
<!-- 1&#45;&gt;4 -->
<g id="edge2" class="edge">
<title>1-&gt;4</title>
<path fill="none" stroke="#000000" d="M82.5,-78.9129C82.5,-70.9881 82.5,-61.8428 82.5,-53.2138"/>
<polygon fill="#000000" stroke="#000000" points="86.0001,-53.061 82.5,-43.061 79.0001,-53.061 86.0001,-53.061"/>
</g>
<!-- 5 -->
<g id="node5" class="node">
<title>5</title>
<ellipse fill="#d3d3d3" stroke="#000000" cx="143.5" cy="-21.5" rx="21.5" ry="21.5"/>
<text text-anchor="middle" x="143.5" y="-17.3" font-family="Times,serif" font-size="14.00" fill="#000000">SPAFA</text>
</g>
<!-- 1&#45;&gt;5 -->
<g id="edge3" class="edge">
<title>1-&gt;5</title>
<path fill="none" stroke="#000000" d="M95.7361,-83.3582C103.9694,-72.6953 114.7054,-58.7913 123.913,-46.8668"/>
<polygon fill="#000000" stroke="#000000" points="126.9484,-48.6625 130.2897,-38.6084 121.4078,-44.3844 126.9484,-48.6625"/>
</g>
<!-- 6 -->
<g id="node6" class="node">
<title>6</title>
<ellipse fill="#d3d3d3" stroke="#000000" cx="204.5" cy="-21.5" rx="21.5" ry="21.5"/>
<text text-anchor="middle" x="204.5" y="-17.3" font-family="Times,serif" font-size="14.00" fill="#000000">Dijkstra</text>
</g>
<!-- 1&#45;&gt;6 -->
<g id="edge4" class="edge">
<title>1-&gt;6</title>
<path fill="none" stroke="#000000" d="M100.054,-87.9945C104.4062,-84.9861 109.088,-81.8265 113.5,-79 140.0073,-62.0183 148.1246,-60.1858 174.5,-43 175.7751,-42.1692 177.0717,-41.3075 178.375,-40.4278"/>
<polygon fill="#000000" stroke="#000000" points="180.697,-43.0765 186.9138,-34.4973 176.7038,-37.3272 180.697,-43.0765"/>
</g>
<!-- 7 -->
<g id="node7" class="node">
<title>7</title>
<ellipse fill="#d3d3d3" stroke="#000000" cx="265.5" cy="-21.5" rx="21.5" ry="21.5"/>
<text text-anchor="middle" x="265.5" y="-17.3" font-family="Times,serif" font-size="14.00" fill="#000000">A*</text>
</g>
<!-- 1&#45;&gt;7 -->
<g id="edge5" class="edge">
<title>1-&gt;7</title>
<path fill="none" stroke="#000000" d="M99.6092,-87.1959C103.9749,-84.2117 108.7743,-81.2633 113.5,-79 164.4874,-54.5799 184.7027,-67.813 235.5,-43 237.0438,-42.2459 238.5932,-41.414 240.1303,-40.5287"/>
<polygon fill="#000000" stroke="#000000" points="242.1462,-43.3937 248.6715,-35.0468 238.3652,-37.5027 242.1462,-43.3937"/>
</g>
<!-- 2 -->
<g id="node2" class="node">
<title>2</title>
<ellipse fill="#d3d3d3" stroke="#000000" cx="143.5" cy="-100.5" rx="21.5" ry="21.5"/>
<text text-anchor="middle" x="143.5" y="-96.3" font-family="Times,serif" font-size="14.00" fill="#000000">清空地图</text>
</g>
<!-- 2&#45;&gt;3 -->
<g id="edge6" class="edge">
<title>2-&gt;3</title>
<path fill="none" stroke="#000000" d="M160.6092,-87.1959C164.9749,-84.2117 169.7743,-81.2633 174.5,-79 225.4874,-54.5799 245.7027,-67.813 296.5,-43 298.0438,-42.2459 299.5932,-41.414 301.1303,-40.5287"/>
<polygon fill="#000000" stroke="#000000" points="303.1462,-43.3937 309.6715,-35.0468 299.3652,-37.5027 303.1462,-43.3937"/>
</g>
<!-- 2&#45;&gt;4 -->
<g id="edge7" class="edge">
<title>2-&gt;4</title>
<path fill="none" stroke="#000000" d="M130.2639,-83.3582C122.0306,-72.6953 111.2946,-58.7913 102.087,-46.8668"/>
<polygon fill="#000000" stroke="#000000" points="104.5922,-44.3844 95.7103,-38.6084 99.0516,-48.6625 104.5922,-44.3844"/>
</g>
<!-- 2&#45;&gt;5 -->
<g id="edge8" class="edge">
<title>2-&gt;5</title>
<path fill="none" stroke="#000000" d="M143.5,-78.9129C143.5,-70.9881 143.5,-61.8428 143.5,-53.2138"/>
<polygon fill="#000000" stroke="#000000" points="147.0001,-53.061 143.5,-43.061 140.0001,-53.061 147.0001,-53.061"/>
</g>
<!-- 2&#45;&gt;6 -->
<g id="edge9" class="edge">
<title>2-&gt;6</title>
<path fill="none" stroke="#000000" d="M156.7361,-83.3582C164.9694,-72.6953 175.7054,-58.7913 184.913,-46.8668"/>
<polygon fill="#000000" stroke="#000000" points="187.9484,-48.6625 191.2897,-38.6084 182.4078,-44.3844 187.9484,-48.6625"/>
</g>
<!-- 2&#45;&gt;7 -->
<g id="edge10" class="edge">
<title>2-&gt;7</title>
<path fill="none" stroke="#000000" d="M161.054,-87.9945C165.4062,-84.9861 170.088,-81.8265 174.5,-79 201.0073,-62.0183 209.1246,-60.1858 235.5,-43 236.7751,-42.1692 238.0717,-41.3075 239.375,-40.4278"/>
<polygon fill="#000000" stroke="#000000" points="241.697,-43.0765 247.9138,-34.4973 237.7038,-37.3272 241.697,-43.0765"/>
</g>
<!-- 8 -->
<g id="node8" class="node">
<title>8</title>
<ellipse fill="#d3d3d3" stroke="#000000" cx="204.5" cy="-100.5" rx="21.5" ry="21.5"/>
<text text-anchor="middle" x="204.5" y="-96.3" font-family="Times,serif" font-size="14.00" fill="#000000">清除轨迹</text>
</g>
<!-- 8&#45;&gt;3 -->
<g id="edge11" class="edge">
<title>8-&gt;3</title>
<path fill="none" stroke="#000000" d="M222.054,-87.9945C226.4062,-84.9861 231.088,-81.8265 235.5,-79 262.0073,-62.0183 270.1246,-60.1858 296.5,-43 297.7751,-42.1692 299.0717,-41.3075 300.375,-40.4278"/>
<polygon fill="#000000" stroke="#000000" points="302.697,-43.0765 308.9138,-34.4973 298.7038,-37.3272 302.697,-43.0765"/>
</g>
<!-- 8&#45;&gt;4 -->
<g id="edge12" class="edge">
<title>8-&gt;4</title>
<path fill="none" stroke="#000000" d="M186.9138,-87.5027C182.8818,-84.6335 178.5802,-81.6586 174.5,-79 148.1246,-61.8142 140.0073,-59.9817 113.5,-43 111.8455,-41.9401 110.1531,-40.8333 108.4543,-39.7052"/>
<polygon fill="#000000" stroke="#000000" points="110.2942,-36.724 100.054,-34.0055 106.3639,-42.5165 110.2942,-36.724"/>
</g>
<!-- 8&#45;&gt;5 -->
<g id="edge13" class="edge">
<title>8-&gt;5</title>
<path fill="none" stroke="#000000" d="M191.2639,-83.3582C183.0306,-72.6953 172.2946,-58.7913 163.087,-46.8668"/>
<polygon fill="#000000" stroke="#000000" points="165.5922,-44.3844 156.7103,-38.6084 160.0516,-48.6625 165.5922,-44.3844"/>
</g>
<!-- 8&#45;&gt;6 -->
<g id="edge14" class="edge">
<title>8-&gt;6</title>
<path fill="none" stroke="#000000" d="M204.5,-78.9129C204.5,-70.9881 204.5,-61.8428 204.5,-53.2138"/>
<polygon fill="#000000" stroke="#000000" points="208.0001,-53.061 204.5,-43.061 201.0001,-53.061 208.0001,-53.061"/>
</g>
<!-- 8&#45;&gt;7 -->
<g id="edge15" class="edge">
<title>8-&gt;7</title>
<path fill="none" stroke="#000000" d="M217.7361,-83.3582C225.9694,-72.6953 236.7054,-58.7913 245.913,-46.8668"/>
<polygon fill="#000000" stroke="#000000" points="248.9484,-48.6625 252.2897,-38.6084 243.4078,-44.3844 248.9484,-48.6625"/>
</g>
<!-- 9 -->
<g id="node9" class="node">
<title>9</title>
<ellipse fill="#d3d3d3" stroke="#000000" cx="265.5" cy="-100.5" rx="21.5" ry="21.5"/>
<text text-anchor="middle" x="265.5" y="-96.3" font-family="Times,serif" font-size="14.00" fill="#000000">行加一</text>
</g>
<!-- 9&#45;&gt;3 -->
<g id="edge16" class="edge">
<title>9-&gt;3</title>
<path fill="none" stroke="#000000" d="M278.7361,-83.3582C286.9694,-72.6953 297.7054,-58.7913 306.913,-46.8668"/>
<polygon fill="#000000" stroke="#000000" points="309.9484,-48.6625 313.2897,-38.6084 304.4078,-44.3844 309.9484,-48.6625"/>
</g>
<!-- 9&#45;&gt;4 -->
<g id="edge17" class="edge">
<title>9-&gt;4</title>
<path fill="none" stroke="#000000" d="M248.6715,-86.9532C244.5302,-84.0465 239.9909,-81.1937 235.5,-79 184.7027,-54.187 164.4874,-67.4201 113.5,-43 111.7279,-42.1513 109.9454,-41.2062 108.1793,-40.199"/>
<polygon fill="#000000" stroke="#000000" points="109.9366,-37.1695 99.6092,-34.8041 106.2074,-43.0935 109.9366,-37.1695"/>
</g>
<!-- 9&#45;&gt;5 -->
<g id="edge18" class="edge">
<title>9-&gt;5</title>
<path fill="none" stroke="#000000" d="M247.9138,-87.5027C243.8818,-84.6335 239.5802,-81.6586 235.5,-79 209.1246,-61.8142 201.0073,-59.9817 174.5,-43 172.8455,-41.9401 171.1531,-40.8333 169.4543,-39.7052"/>
<polygon fill="#000000" stroke="#000000" points="171.2942,-36.724 161.054,-34.0055 167.3639,-42.5165 171.2942,-36.724"/>
</g>
<!-- 9&#45;&gt;6 -->
<g id="edge19" class="edge">
<title>9-&gt;6</title>
<path fill="none" stroke="#000000" d="M252.2639,-83.3582C244.0306,-72.6953 233.2946,-58.7913 224.087,-46.8668"/>
<polygon fill="#000000" stroke="#000000" points="226.5922,-44.3844 217.7103,-38.6084 221.0516,-48.6625 226.5922,-44.3844"/>
</g>
<!-- 9&#45;&gt;7 -->
<g id="edge20" class="edge">
<title>9-&gt;7</title>
<path fill="none" stroke="#000000" d="M265.5,-78.9129C265.5,-70.9881 265.5,-61.8428 265.5,-53.2138"/>
<polygon fill="#000000" stroke="#000000" points="269.0001,-53.061 265.5,-43.061 262.0001,-53.061 269.0001,-53.061"/>
</g>
<!-- 10 -->
<g id="node10" class="node">
<title>10</title>
<ellipse fill="#d3d3d3" stroke="#000000" cx="326.5" cy="-100.5" rx="21.5" ry="21.5"/>
<text text-anchor="middle" x="326.5" y="-96.3" font-family="Times,serif" font-size="14.00" fill="#000000">行减一</text>
</g>
<!-- 10&#45;&gt;3 -->
<g id="edge21" class="edge">
<title>10-&gt;3</title>
<path fill="none" stroke="#000000" d="M326.5,-78.9129C326.5,-70.9881 326.5,-61.8428 326.5,-53.2138"/>
<polygon fill="#000000" stroke="#000000" points="330.0001,-53.061 326.5,-43.061 323.0001,-53.061 330.0001,-53.061"/>
</g>
<!-- 10&#45;&gt;4 -->
<g id="edge22" class="edge">
<title>10-&gt;4</title>
<path fill="none" stroke="#000000" d="M309.8119,-86.648C305.6648,-83.7539 301.0877,-80.9832 296.5,-79 220.413,-46.108 189.8387,-75.3035 113.5,-43 111.6905,-42.2343 109.8793,-41.3527 108.0918,-40.3931"/>
<polygon fill="#000000" stroke="#000000" points="109.8247,-37.3503 99.4677,-35.118 106.1721,-43.3218 109.8247,-37.3503"/>
</g>
<!-- 10&#45;&gt;5 -->
<g id="edge23" class="edge">
<title>10-&gt;5</title>
<path fill="none" stroke="#000000" d="M309.6715,-86.9532C305.5302,-84.0465 300.9909,-81.1937 296.5,-79 245.7027,-54.187 225.4874,-67.4201 174.5,-43 172.7279,-42.1513 170.9454,-41.2062 169.1793,-40.199"/>
<polygon fill="#000000" stroke="#000000" points="170.9366,-37.1695 160.6092,-34.8041 167.2074,-43.0935 170.9366,-37.1695"/>
</g>
<!-- 10&#45;&gt;6 -->
<g id="edge24" class="edge">
<title>10-&gt;6</title>
<path fill="none" stroke="#000000" d="M308.9138,-87.5027C304.8818,-84.6335 300.5802,-81.6586 296.5,-79 270.1246,-61.8142 262.0073,-59.9817 235.5,-43 233.8455,-41.9401 232.1531,-40.8333 230.4543,-39.7052"/>
<polygon fill="#000000" stroke="#000000" points="232.2942,-36.724 222.054,-34.0055 228.3639,-42.5165 232.2942,-36.724"/>
</g>
<!-- 10&#45;&gt;7 -->
<g id="edge25" class="edge">
<title>10-&gt;7</title>
<path fill="none" stroke="#000000" d="M313.2639,-83.3582C305.0306,-72.6953 294.2946,-58.7913 285.087,-46.8668"/>
<polygon fill="#000000" stroke="#000000" points="287.5922,-44.3844 278.7103,-38.6084 282.0516,-48.6625 287.5922,-44.3844"/>
</g>
<!-- 11 -->
<g id="node11" class="node">
<title>11</title>
<ellipse fill="#d3d3d3" stroke="#000000" cx="387.5" cy="-100.5" rx="21.5" ry="21.5"/>
<text text-anchor="middle" x="387.5" y="-96.3" font-family="Times,serif" font-size="14.00" fill="#000000">列加一</text>
</g>
<!-- 11&#45;&gt;3 -->
<g id="edge26" class="edge">
<title>11-&gt;3</title>
<path fill="none" stroke="#000000" d="M374.2639,-83.3582C366.0306,-72.6953 355.2946,-58.7913 346.087,-46.8668"/>
<polygon fill="#000000" stroke="#000000" points="348.5922,-44.3844 339.7103,-38.6084 343.0516,-48.6625 348.5922,-44.3844"/>
</g>
<!-- 11&#45;&gt;4 -->
<g id="edge27" class="edge">
<title>11-&gt;4</title>
<path fill="none" stroke="#000000" d="M370.8787,-86.4883C366.7289,-83.6008 362.1338,-80.8731 357.5,-79 255.871,-37.9177 215.4431,-83.2964 113.5,-43 111.6727,-42.2777 109.8479,-41.4294 108.0502,-40.4946"/>
<polygon fill="#000000" stroke="#000000" points="109.7721,-37.4459 99.4005,-35.2822 106.1591,-43.4414 109.7721,-37.4459"/>
</g>
<!-- 11&#45;&gt;5 -->
<g id="edge28" class="edge">
<title>11-&gt;5</title>
<path fill="none" stroke="#000000" d="M370.8119,-86.648C366.6648,-83.7539 362.0877,-80.9832 357.5,-79 281.413,-46.108 250.8387,-75.3035 174.5,-43 172.6905,-42.2343 170.8793,-41.3527 169.0918,-40.3931"/>
<polygon fill="#000000" stroke="#000000" points="170.8247,-37.3503 160.4677,-35.118 167.1721,-43.3218 170.8247,-37.3503"/>
</g>
<!-- 11&#45;&gt;6 -->
<g id="edge29" class="edge">
<title>11-&gt;6</title>
<path fill="none" stroke="#000000" d="M370.6715,-86.9532C366.5302,-84.0465 361.9909,-81.1937 357.5,-79 306.7027,-54.187 286.4874,-67.4201 235.5,-43 233.7279,-42.1513 231.9454,-41.2062 230.1793,-40.199"/>
<polygon fill="#000000" stroke="#000000" points="231.9366,-37.1695 221.6092,-34.8041 228.2074,-43.0935 231.9366,-37.1695"/>
</g>
<!-- 11&#45;&gt;7 -->
<g id="edge30" class="edge">
<title>11-&gt;7</title>
<path fill="none" stroke="#000000" d="M369.9138,-87.5027C365.8818,-84.6335 361.5802,-81.6586 357.5,-79 331.1246,-61.8142 323.0073,-59.9817 296.5,-43 294.8455,-41.9401 293.1531,-40.8333 291.4543,-39.7052"/>
<polygon fill="#000000" stroke="#000000" points="293.2942,-36.724 283.054,-34.0055 289.3639,-42.5165 293.2942,-36.724"/>
</g>
<!-- 12 -->
<g id="node12" class="node">
<title>12</title>
<ellipse fill="#d3d3d3" stroke="#000000" cx="21.5" cy="-100.5" rx="21.5" ry="21.5"/>
<text text-anchor="middle" x="21.5" y="-96.3" font-family="Times,serif" font-size="14.00" fill="#000000">列减一</text>
</g>
<!-- 12&#45;&gt;3 -->
<g id="edge31" class="edge">
<title>12-&gt;3</title>
<path fill="none" stroke="#000000" d="M38.4005,-86.7178C42.7725,-83.7481 47.6272,-80.9262 52.5,-79 154.4431,-38.7036 194.871,-84.0823 296.5,-43 298.0929,-42.3561 299.6811,-41.6112 301.2484,-40.7936"/>
<polygon fill="#000000" stroke="#000000" points="303.1764,-43.7172 309.8787,-35.5117 299.5222,-37.7466 303.1764,-43.7172"/>
</g>
<!-- 12&#45;&gt;4 -->
<g id="edge32" class="edge">
<title>12-&gt;4</title>
<path fill="none" stroke="#000000" d="M34.7361,-83.3582C42.9694,-72.6953 53.7054,-58.7913 62.913,-46.8668"/>
<polygon fill="#000000" stroke="#000000" points="65.9484,-48.6625 69.2897,-38.6084 60.4078,-44.3844 65.9484,-48.6625"/>
</g>
<!-- 12&#45;&gt;5 -->
<g id="edge33" class="edge">
<title>12-&gt;5</title>
<path fill="none" stroke="#000000" d="M39.054,-87.9945C43.4062,-84.9861 48.088,-81.8265 52.5,-79 79.0073,-62.0183 87.1246,-60.1858 113.5,-43 114.7751,-42.1692 116.0717,-41.3075 117.375,-40.4278"/>
<polygon fill="#000000" stroke="#000000" points="119.697,-43.0765 125.9138,-34.4973 115.7038,-37.3272 119.697,-43.0765"/>
</g>
<!-- 12&#45;&gt;6 -->
<g id="edge34" class="edge">
<title>12-&gt;6</title>
<path fill="none" stroke="#000000" d="M38.6092,-87.1959C42.9749,-84.2117 47.7743,-81.2633 52.5,-79 103.4874,-54.5799 123.7027,-67.813 174.5,-43 176.0438,-42.2459 177.5932,-41.414 179.1303,-40.5287"/>
<polygon fill="#000000" stroke="#000000" points="181.1462,-43.3937 187.6715,-35.0468 177.3652,-37.5027 181.1462,-43.3937"/>
</g>
<!-- 12&#45;&gt;7 -->
<g id="edge35" class="edge">
<title>12-&gt;7</title>
<path fill="none" stroke="#000000" d="M38.4677,-86.882C42.8376,-83.9073 47.6745,-81.0419 52.5,-79 128.8387,-46.6965 159.413,-75.892 235.5,-43 237.077,-42.3183 238.6528,-41.5435 240.2103,-40.7026"/>
<polygon fill="#000000" stroke="#000000" points="242.1694,-43.6059 248.8119,-35.352 238.472,-37.6621 242.1694,-43.6059"/>
</g>
</g>
</svg>